<svg width="276" height="121" viewBox="0 0 276 121" fill="none" xmlns="http://www.w3.org/2000/svg">
<path d="M73.5306 34.1176C76.2491 39.4412 82.1243 55.7876 83.8766 78.5844C126.03 36.9346 113.186 14.813 101.889 2.03636C97.0421 -2.20077 86.9524 -0.547831 76.0472 13.933C73.4917 17.8442 70.0353 26.6444 73.5306 34.1176Z" fill="#6D7ABC"/>
<path d="M82.1755 78.7706C71.7829 17.4484 35.4087 -0.803922 0.12974 10.9996C-3.15581 64.3364 56.8231 45.8279 82.1755 78.7706Z" fill="#6D7ABC"/>
<path d="M82.1755 81.0754C79.9781 78.0101 72.8751 70.6176 62.0427 65.5702C56.9629 76.9547 35.9447 92.0408 41.4439 120.839C59.8291 119.186 77.9579 109.455 82.1755 81.0754Z" fill="#6D7ABC"/>
<path d="M117.852 82.0259V40.8874H127.373V74.2683H148.001V82.0259H117.852ZM167.604 82.496C164.234 82.496 161.237 81.7908 158.612 80.3803C156.026 78.9699 153.969 77.0501 152.441 74.621C150.952 72.1526 150.208 69.3513 150.208 66.2169C150.208 63.0434 150.952 60.2421 152.441 57.8129C153.969 55.3446 156.026 53.4248 158.612 52.0536C161.237 50.6431 164.234 49.9379 167.604 49.9379C170.934 49.9379 173.912 50.6431 176.537 52.0536C179.162 53.4248 181.219 55.325 182.707 57.7542C184.196 60.1833 184.941 63.0042 184.941 66.2169C184.941 69.3513 184.196 72.1526 182.707 74.621C181.219 77.0501 179.162 78.9699 176.537 80.3803C173.912 81.7908 170.934 82.496 167.604 82.496ZM167.604 74.9736C169.132 74.9736 170.503 74.621 171.718 73.9157C172.932 73.2105 173.892 72.2114 174.597 70.9185C175.303 69.5864 175.655 68.0192 175.655 66.2169C175.655 64.3755 175.303 62.8083 174.597 61.5154C173.892 60.2225 172.932 59.2234 171.718 58.5182C170.503 57.8129 169.132 57.4603 167.604 57.4603C166.076 57.4603 164.705 57.8129 163.49 58.5182C162.275 59.2234 161.296 60.2225 160.551 61.5154C159.846 62.8083 159.494 64.3755 159.494 66.2169C159.494 68.0192 159.846 69.5864 160.551 70.9185C161.296 72.2114 162.275 73.2105 163.49 73.9157C164.705 74.621 166.076 74.9736 167.604 74.9736ZM206.349 82.496C202.94 82.496 199.904 81.8104 197.24 80.4391C194.575 79.0286 192.479 77.0893 190.951 74.621C189.462 72.1526 188.718 69.3513 188.718 66.2169C188.718 63.0434 189.462 60.2421 190.951 57.8129C192.479 55.3446 194.575 53.4248 197.24 52.0536C199.904 50.6431 202.94 49.9379 206.349 49.9379C209.679 49.9379 212.578 50.6431 215.047 52.0536C217.515 53.4248 219.337 55.4034 220.512 57.9893L213.401 61.8093C212.578 60.3204 211.54 59.2234 210.286 58.5182C209.072 57.8129 207.74 57.4603 206.29 57.4603C204.723 57.4603 203.312 57.8129 202.059 58.5182C200.805 59.2234 199.806 60.2225 199.061 61.5154C198.356 62.8083 198.004 64.3755 198.004 66.2169C198.004 68.0584 198.356 69.6256 199.061 70.9185C199.806 72.2114 200.805 73.2105 202.059 73.9157C203.312 74.621 204.723 74.9736 206.29 74.9736C207.74 74.9736 209.072 74.6405 210.286 73.9745C211.54 73.2693 212.578 72.1526 213.401 70.6246L220.512 74.5034C219.337 77.0501 217.515 79.0286 215.047 80.4391C212.578 81.8104 209.679 82.496 206.349 82.496ZM245.185 82.0259V75.8551L244.597 74.5034V63.4548C244.597 61.4958 243.99 59.9678 242.775 58.8708C241.6 57.7738 239.778 57.2253 237.31 57.2253C235.625 57.2253 233.96 57.4995 232.314 58.048C230.708 58.5574 229.337 59.2626 228.2 60.1637L224.909 53.7579C226.633 52.5433 228.71 51.603 231.139 50.9369C233.568 50.2709 236.036 49.9379 238.544 49.9379C243.363 49.9379 247.105 51.0741 249.769 53.3465C252.433 55.6189 253.765 59.1646 253.765 63.9837V82.0259H245.185ZM235.547 82.496C233.078 82.496 230.963 82.0846 229.199 81.2619C227.436 80.3999 226.085 79.2441 225.144 77.7945C224.204 76.3449 223.734 74.7189 223.734 72.9166C223.734 71.036 224.184 69.3905 225.086 67.98C226.026 66.5696 227.495 65.4725 229.493 64.6889C231.491 63.8662 234.097 63.4548 237.31 63.4548H245.714V68.8028H238.309C236.154 68.8028 234.665 69.1554 233.842 69.8606C233.059 70.5659 232.667 71.4474 232.667 72.5053C232.667 73.6806 233.117 74.621 234.019 75.3262C234.959 75.9922 236.232 76.3253 237.839 76.3253C239.367 76.3253 240.738 75.9726 241.952 75.2674C243.167 74.523 244.048 73.4456 244.597 72.0351L246.007 76.2665C245.341 78.3038 244.127 79.8514 242.364 80.9093C240.601 81.9671 238.328 82.496 235.547 82.496ZM262.063 82.0259V38.4191H271.231V82.0259H262.063Z" fill="#6D7ABC"/>
</svg>
